<svg
  xmlns="http://www.w3.org/2000/svg"
  width="720"
  height="520"
  viewBox="0 0 720 520"
  fill="none"
  role="img"
  aria-labelledby="title desc"
>
  <title id="title">送り元から相手へ文章が届く前に整える差し絵</title>
  <desc id="desc">
    送り元と送り相手のあいだに文章カードがあり、送る前に言葉を見直す流れを示す線画のイラストです。
  </desc>
  <defs>
    <filter
      id="shadow"
      x="-10%"
      y="-10%"
      width="120%"
      height="120%"
      color-interpolation-filters="sRGB"
    >
      <feDropShadow
        dx="0"
        dy="18"
        stdDeviation="20"
        flood-color="#132522"
        flood-opacity="0.08"
      />
    </filter>
    <style>
      .ink { fill: #1f2927; }
      .text { fill: #415653; }
      .muted { fill: #8ca09b; }
      .line { stroke: #b9d9d3; stroke-width: 3; stroke-linecap: round; }
      .accent { stroke: #00857e; stroke-width: 5; stroke-linecap: round; }
      .accent-fill { fill: #00857e; }
      .accent-soft { fill: #e4f3f0; }
      .surface { fill: #ffffff; }
      .frame { fill: #ffffff; stroke: #d9e8e4; stroke-width: 2; }
      .mark { fill: #ea8a97; }
      .portrait-stroke {
        stroke: #94c8c1;
        stroke-width: 2.5;
        stroke-linecap: round;
        stroke-linejoin: round;
      }
      .portrait-ink {
        stroke: #3a4f4b;
        stroke-width: 2.2;
        stroke-linecap: round;
        stroke-linejoin: round;
        fill: none;
      }
      .portrait-fill {
        fill: #ffffff;
        stroke: #cfe2dd;
        stroke-width: 2;
      }
      .portrait-soft {
        fill: #e7f4f1;
      }
      .jp {
        font-family: "Hiragino Sans", "Yu Gothic", "Meiryo", sans-serif;
      }
      .label {
        font-size: 20px;
        font-weight: 700;
      }
      .meta {
        font-size: 15px;
        font-weight: 700;
      }
      .body {
        font-size: 20px;
        font-weight: 500;
      }
      .small {
        font-size: 13px;
        font-weight: 500;
      }
    </style>
  </defs>

  <ellipse cx="360" cy="266" rx="258" ry="168" fill="#f3fbf9" />

  <path
    d="M124 250C182 238 216 234 264 234"
    class="line"
    stroke-dasharray="1 12"
  />
  <path
    d="M456 234C510 234 544 238 596 250"
    class="line"
    stroke-dasharray="1 12"
  />
  <circle cx="264" cy="234" r="6" class="accent-fill" />
  <circle cx="456" cy="234" r="6" class="accent-fill" />

  <g filter="url(#shadow)">
    <rect x="218" y="116" width="284" height="266" rx="28" class="surface" />
  </g>
  <rect x="218" y="116" width="284" height="266" rx="28" class="frame" />
  <rect x="250" y="144" width="112" height="28" rx="14" class="accent-soft" />
  <text class="jp meta text" x="272" y="163">送る前に見直す</text>

  <rect x="250" y="198" width="202" height="13" rx="6.5" fill="#3b514d" opacity="0.92" />
  <rect x="250" y="226" width="168" height="10" rx="5" fill="#cfe0dc" />
  <rect x="250" y="256" width="148" height="13" rx="6.5" fill="#3b514d" opacity="0.92" />
  <rect x="250" y="284" width="188" height="10" rx="5" fill="#cfe0dc" />
  <rect x="250" y="314" width="214" height="13" rx="6.5" fill="#3b514d" opacity="0.92" />
  <path d="M250 333H336" class="accent" />
  <rect x="340" y="322" width="18" height="18" rx="4" class="mark" />
  <rect x="344" y="326" width="4" height="8" rx="2" fill="#ffffff" />
  <rect x="250" y="346" width="156" height="10" rx="5" fill="#cfe0dc" />

  <g transform="translate(46 154)">
    <circle cx="68" cy="66" r="62" class="surface" stroke="#d9e8e4" stroke-width="2" />
    <path
      d="M35 116C40 94 53 83 68 83C83 83 96 94 101 116"
      class="portrait-soft portrait-stroke"
    />
    <ellipse cx="68" cy="57" rx="28" ry="33" class="portrait-fill" />
    <path
      d="M44 53C47 32 57 24 68 24C81 24 91 34 92 50C86 42 78 39 70 39C62 39 53 43 44 53Z"
      class="portrait-soft portrait-stroke"
    />
    <path d="M57 55C60 52 63 51 66 52" class="portrait-ink" />
    <path d="M74 52C77 51 80 52 83 55" class="portrait-ink" />
    <circle cx="61" cy="63" r="2.4" fill="#334844" />
    <circle cx="79" cy="63" r="2.4" fill="#334844" />
    <path d="M70 66C68 73 68 76 71 79" class="portrait-ink" />
    <path d="M61 86C66 90 73 90 79 85" class="portrait-ink" />
    <path d="M47 115C53 99 61 94 68 94C76 94 84 99 89 115" class="portrait-ink" />
    <text class="jp label ink" x="10" y="148">送り元</text>
    <text class="jp body text" x="3" y="176">自分の言葉</text>
  </g>

  <g transform="translate(544 154)">
    <circle cx="68" cy="66" r="62" class="surface" stroke="#d9e8e4" stroke-width="2" />
    <path
      d="M35 116C40 94 53 83 68 83C83 83 96 94 101 116"
      class="portrait-soft portrait-stroke"
    />
    <ellipse cx="68" cy="57" rx="28" ry="33" class="portrait-fill" />
    <path
      d="M45 51C48 32 58 23 68 23C81 23 91 32 94 51C85 43 77 40 68 40C60 40 53 43 45 51Z"
      class="portrait-soft portrait-stroke"
    />
    <path d="M56 54C59 51 62 50 65 51" class="portrait-ink" />
    <path d="M73 51C76 50 79 51 82 54" class="portrait-ink" />
    <circle cx="60" cy="63" r="2.4" fill="#334844" />
    <circle cx="78" cy="63" r="2.4" fill="#334844" />
    <path d="M69 66C67 72 67 75 70 78" class="portrait-ink" />
    <path d="M60 84C66 89 74 89 80 84" class="portrait-ink" />
    <path d="M47 115C52 99 60 94 68 94C76 94 84 99 89 115" class="portrait-ink" />
    <text class="jp label ink" x="2" y="148">送り相手</text>
    <text class="jp body text" x="-4" y="176">相手に伝える</text>
  </g>

  <path
    d="M166 312C210 336 238 344 284 348"
    class="line"
  />
  <path
    d="M436 348C482 344 510 336 554 312"
    class="line"
  />
  <circle cx="284" cy="348" r="5" class="accent-fill" />
  <circle cx="436" cy="348" r="5" class="accent-fill" />

  <rect x="284" y="404" width="152" height="32" rx="16" class="surface" stroke="#d9e8e4" stroke-width="2" />
  <path d="M308 420H336" class="accent" />
  <text class="jp meta text" x="348" y="424">書き直しすぎずに整える</text>
</svg>
