<svg xmlns="http://www.w3.org/2000/svg" viewBox="0 0 373.72 500"><defs><style>.cls-1{fill:#e26d6d;}.cls-2{fill:#ff7b7b;}.cls-3{fill:#f4f6f9;}.cls-12,.cls-4{fill:#c1c4d3;}.cls-4{opacity:0.2;}.cls-5{fill:#6540c1;}.cls-6{fill:#8c50ff;}.cls-7{fill:#7040cc;}.cls-8{fill:#252935;}.cls-9{fill:#2b303f;}.cls-10{fill:#3a4151;}.cls-11{fill:#dadce5;}.cls-13{isolation:isolate;}.cls-14{fill:#e6e9ef;}.cls-15{fill:#ffcea9;}.cls-16{fill:#38226d;}.cls-17{fill:#9c73ff;}.cls-18{fill:#f4f4f4;}.cls-19{fill:#1f232b;}.cls-20{fill:#2d323e;}.cls-21{fill:#323846;}.cls-22{fill:#3a2c6d;}.cls-23{fill:#ededed;}.cls-24{fill:#d6d8e5;opacity:0.4;}.cls-25{fill:#e2c979;}.cls-26{fill:#efda86;}.cls-27{fill:#28221c;}.cls-28{fill:#99b524;}.cls-29{fill:#a6ce28;}</style></defs><title>Books_SVG</title><g id="Слой_2" data-name="Слой 2"><g id="Слой_1-2" data-name="Слой 1"><polygon class="cls-1" points="332.49 113.1 373.72 89.16 373.72 337.16 331.79 361.54 332.49 113.1"/><polygon class="cls-2" points="332.49 113.1 331.79 361.54 177.35 272.38 178.06 23.94 332.49 113.1"/><polygon class="cls-3" points="360.52 88.75 331.66 105.58 188.15 22.58 216.93 5.85 360.52 88.75"/><polygon class="cls-4" points="366.24 131.15 338.9 146.94 339.39 319.4 366.73 303.61 366.24 131.15"/><polygon class="cls-2" points="373.72 89.16 367.5 92.78 338.71 109.51 332.48 113.13 325.51 109.1 178.05 23.96 184.28 20.34 332.62 103.02 359.26 88.03 213.06 3.62 219.28 0 366.74 85.14 373.72 89.16"/><polygon class="cls-5" points="290.56 137.49 331.79 113.55 331.79 361.55 289.86 385.93 290.56 137.49"/><polygon class="cls-6" points="290.56 137.49 289.86 385.93 135.42 296.77 136.13 48.33 290.56 137.49"/><polygon class="cls-3" points="318.59 113.14 289.73 129.97 146.22 46.97 175 30.24 318.59 113.14"/><polygon class="cls-4" points="324.31 155.54 296.97 171.33 297.46 343.79 324.8 328 324.31 155.54"/><polygon class="cls-7" points="331.79 113.55 325.57 117.17 296.78 133.9 290.55 137.52 283.58 133.49 136.12 48.35 142.35 44.73 290.69 127.41 317.33 112.42 171.13 28.01 177.35 24.39 324.81 109.53 331.79 113.55"/><polygon class="cls-8" points="339.91 232.66 344.7 229.87 343.95 494.95 339.15 497.74 339.91 232.66"/><polygon class="cls-9" points="179.93 134.74 15.16 39.61 10.36 42.4 175.13 137.53 339.91 232.66 344.7 229.87 179.93 134.74"/><polygon class="cls-10" points="339.91 232.66 339.15 497.74 174.38 402.61 147.9 380.8 143.39 384.71 9.61 307.47 10.36 42.4 175.13 137.53 339.91 232.66"/><path class="cls-3" d="M179.11,148.47.7,73.24,0,321.67l122.06,70.47A17,17,0,0,0,146.22,384h0v22.1L308.87,500l.7-248.44L179.11,148.47"/><polygon class="cls-11" points="146.22 149.73 146.22 406.1 308.87 500 309.57 251.56 146.22 149.73"/><polygon class="cls-12" points="291.07 420.3 291.06 424.74 178.49 359.75 178.5 355.31 291.07 420.3"/><polygon class="cls-12" points="291.13 400.29 291.11 404.73 178.55 339.74 178.56 335.3 291.13 400.29"/><polygon class="cls-12" points="291.24 360.27 291.23 364.7 178.66 299.71 178.68 295.28 291.24 360.27"/><polygon class="cls-12" points="291.3 340.25 291.28 344.7 178.72 279.71 178.73 275.27 291.3 340.25"/><polygon class="cls-12" points="291.35 320.25 291.34 324.68 178.78 259.69 178.79 255.26 291.35 320.25"/><polygon class="cls-12" points="291.18 380.28 291.17 384.71 178.61 319.73 178.62 315.29 291.18 380.28"/><polygon class="cls-12" points="291.01 440.31 291 444.75 178.44 379.76 178.45 375.32 291.01 440.31"/><polygon class="cls-12" points="290.96 460.33 290.94 464.76 178.38 399.77 178.39 395.34 290.96 460.33"/><polygon class="cls-12" points="291.47 280.22 291.45 284.67 178.89 219.68 178.9 215.24 291.47 280.22"/><polygon class="cls-12" points="291.52 260.21 291.51 264.65 178.95 199.66 178.96 195.22 291.52 260.21"/><polygon class="cls-12" points="291.41 300.24 291.4 304.67 178.83 239.68 178.85 235.25 291.41 300.24"/><polygon class="cls-12" points="128.7 366.79 128.69 371.23 16.13 306.24 16.14 301.81 128.7 366.79"/><polygon class="cls-12" points="128.76 346.78 128.75 351.21 16.18 286.22 16.2 281.79 128.76 346.78"/><polygon class="cls-12" points="128.93 286.75 128.92 291.18 16.35 226.19 16.36 221.76 128.93 286.75"/><polygon class="cls-12" points="129.16 206.71 129.14 211.14 16.58 146.15 16.59 141.72 129.16 206.71"/><polygon class="cls-12" points="129.21 186.69 129.2 191.13 16.64 126.14 16.65 121.7 129.21 186.69"/><polygon class="cls-12" points="129.27 166.68 129.26 171.12 16.69 106.13 16.71 101.69 129.27 166.68"/><polygon class="cls-12" points="129.1 226.72 129.09 231.15 16.52 166.16 16.54 161.73 129.1 226.72"/><g class="cls-13"><polygon class="cls-12" points="128.87 306.75 128.86 311.19 16.3 246.21 16.31 241.76 128.87 306.75"/><polygon class="cls-12" points="128.99 266.74 128.97 271.17 16.41 206.18 16.42 201.75 128.99 266.74"/><polygon class="cls-12" points="129.04 246.72 129.03 251.16 16.47 186.18 16.48 181.73 129.04 246.72"/></g><polygon class="cls-12" points="128.82 326.77 128.8 331.21 16.24 266.22 16.25 261.78 128.82 326.77"/><path class="cls-14" d="M.7,73.24l24-13.94,130.11,75.43-4.26,2.48a39.3,39.3,0,0,1-39.44,0Z"/><path class="cls-14" d="M154.79,134.73h0l178.76,102.9-24,13.93L154.84,162.5A16,16,0,0,1,154.79,134.73Z"/><polygon class="cls-12" points="309.57 251.56 333.55 237.63 332.84 486.07 308.87 500 309.57 251.56"/><path class="cls-15" d="M199.92,145.14c-3.07,5.09-6.31,8.51-10.43,12.78-.59.6-2.09.08-2.74-.11-1.17-.34-1.85-.8-3.12-.3a18.77,18.77,0,0,0-2.06,1.13,12.29,12.29,0,0,1-3.27,1.28,19.24,19.24,0,0,1,1.2-2c1.88-2.74,4.63-4.65,6.76-7.21a73.42,73.42,0,0,0,6.25-8.63c2.6-5.34,5.43-14.23,6.6-17.75,2-5.94,3.87-14.73,5.3-18.85s4-5.55,6.53-6c3-.53,4.81.37,4.09,3.87C213.78,109.51,207.7,133.33,199.92,145.14Z"/><path class="cls-16" d="M206.93,240.09c-2.52,2-6.23.18-6.42.37a114.61,114.61,0,0,1-9.29,7.73c-1.57,1.24-4,2.89-3.57,5.26.79,4.24,7.58,2.94,10.14,1.64s4.66-3.45,7.08-5c1.73-1.08,3.43-1.63,3.7-3.82C208.74,245,207.37,240,206.93,240.09Z"/><path class="cls-17" d="M208.54,245.44c-.33,2.09-2,2.67-3.73,3.73-2.46,1.54-4.63,3.74-7.19,5-2.37,1.2-8.28,2.39-9.94-.64.9,4.09,7.58,2.81,10.11,1.52s4.66-3.45,7.08-5c1.73-1.08,3.43-1.63,3.7-3.82A3.93,3.93,0,0,0,208.54,245.44Z"/><path class="cls-16" d="M181.39,225.38c-2.51,2.05-6.92-.19-7.11,0a95,95,0,0,1-8.3,7.5c-1.57,1.23-4,2.88-3.57,5.26.79,4.24,7.58,2.93,10.15,1.64s4.65-3.45,7.08-5c1.73-1.07,3.43-1.63,3.7-3.81C183.5,229.69,181.84,225.33,181.39,225.38Z"/><path class="cls-17" d="M183.26,230.42c-.33,2.1-2,2.67-3.73,3.74-2.46,1.53-4.63,3.74-7.19,5-2.37,1.2-8.28,2.39-9.94-.64.91,4.09,7.58,2.81,10.11,1.53s4.66-3.45,7.08-5c1.73-1.07,3.43-1.63,3.7-3.81A4,4,0,0,0,183.26,230.42Z"/><path class="cls-1" d="M240.59,159.4c2.79,17.43-5,23.93-15,27.64C218.35,189.7,208,193.8,208,193.8s.14,3.83.22,12.41c.07,7.56-.92,35.17-.92,35.17s-4.17,2.16-7.71-.09c0,0-4.06-21.15-4.92-30.68-1.17-12.94-3.15-21.4-2.49-24.18.58-2.46,14.72-9.41,19.2-13.13l-29.61,9.93a52,52,0,0,1,.85,9.74c-.27,10.26-.83,32.47-.83,32.47s-4.07,2.94-7.53.06c0,0-7.45-44-6.55-49.8.86-5.53,27-16.82,31.55-20.71a7.42,7.42,0,0,1,5.81-1.56Z"/><path class="cls-15" d="M230.28,93.78s-.42,8.3-.24,9,3.81,3.17,4.87,4-5.74,7.58-9,9.09-13.77-2.47-14-7.62,1.8-9.46,3.4-9.68S230.28,93.78,230.28,93.78Z"/><path class="cls-18" d="M231.21,104.25s-6,9-14.43,9.82c-2.65-2.61-2.89-11.91.78-14.88,0,0-3.37-2.72-5.68-2.19a11.87,11.87,0,0,0-5.19,6.62,54.28,54.28,0,0,0-3,19.21c.14,8.81,0,31.08,0,31.08s1.26,8.51,8.85,12.75a27.4,27.4,0,0,0,20,2.75c4.26-1,5.84-3.38,7.31-6.47-.38-6.17-2.83-18.88-1.8-26.64s2.67-13.56,3.1-19.84-.83-6.14-4-8.38A49,49,0,0,0,231.21,104.25Z"/><polygon class="cls-19" points="233.15 178.98 233.14 180.09 205.18 196.34 205.18 195.23 233.15 178.98"/><polygon class="cls-20" points="205.18 195.23 205.18 196.34 161.7 171.24 161.71 170.13 205.18 195.23"/><polygon class="cls-21" points="233.15 178.98 205.18 195.23 161.71 170.13 189.67 153.88 233.15 178.98"/><polygon class="cls-11" points="230.18 175.22 204.63 190.07 185.72 180.26 212.18 164.81 230.18 175.22"/><path class="cls-3" d="M210.68,165.37l.51,2.21L184.75,181.9,164.9,167.11l25.54-14.85,18.4,10.63A3.84,3.84,0,0,1,210.68,165.37Z"/><polygon class="cls-11" points="211.29 165.4 211.28 168.72 186.29 182.5 185.75 180.24 211.29 165.4"/><path class="cls-14" d="M204.63,190.07v3.33l-19.86-11.47h0a1.92,1.92,0,0,1,2.89-1.67Z"/><path class="cls-14" d="M184.75,180.36v1.54l-19.86-11.46v-3.33l18.31,10.57A3.09,3.09,0,0,1,184.75,180.36Z"/><polygon class="cls-12" points="202.71 166.39 202.24 166.66 187.23 158 187.47 157.86 187.7 157.72 202.71 166.39"/><polygon class="cls-12" points="205.59 164.71 205.12 164.99 190.11 156.32 190.34 156.19 190.58 156.05 205.59 164.71"/><polygon class="cls-12" points="199.84 168.06 199.35 168.34 184.34 159.67 184.59 159.53 184.83 159.39 199.84 168.06"/><polygon class="cls-12" points="196.96 169.73 196.48 170.01 181.47 161.34 181.7 161.21 181.94 161.07 196.96 169.73"/><polygon class="cls-12" points="194.08 171.4 193.6 171.68 178.59 163.02 178.83 162.88 179.07 162.74 194.08 171.4"/><polygon class="cls-12" points="191.2 173.08 190.72 173.36 175.7 164.69 175.95 164.55 176.19 164.41 191.2 173.08"/><polygon class="cls-12" points="188.32 174.75 187.84 175.03 172.83 166.36 173.07 166.22 173.31 166.09 188.32 174.75"/><polygon class="cls-12" points="185.44 176.42 184.96 176.71 169.95 168.04 170.19 167.9 170.43 167.76 185.44 176.42"/><polygon class="cls-12" points="224.83 176.18 224.35 176.45 209.35 167.79 209.59 167.65 209.83 167.52 224.83 176.18"/><polygon class="cls-12" points="221.96 177.85 221.47 178.13 206.47 169.47 206.71 169.33 206.95 169.19 221.96 177.85"/><polygon class="cls-12" points="219.07 179.52 218.6 179.8 203.59 171.14 203.83 171 204.07 170.86 219.07 179.52"/><polygon class="cls-12" points="216.19 181.2 215.72 181.47 200.71 172.81 200.96 172.67 201.19 172.54 216.19 181.2"/><polygon class="cls-12" points="210.43 184.54 209.96 184.82 194.96 176.16 195.19 176.02 195.43 175.88 210.43 184.54"/><polygon class="cls-12" points="213.32 182.87 212.83 183.15 197.83 174.49 198.07 174.35 198.31 174.21 213.32 182.87"/><polygon class="cls-12" points="207.55 186.22 207.08 186.5 192.07 177.83 192.31 177.69 192.55 177.56 207.55 186.22"/><polygon class="cls-12" points="204.68 187.89 204.19 188.17 189.19 179.51 189.43 179.37 189.68 179.23 204.68 187.89"/><polygon class="cls-12" points="230.18 175.22 230.18 178.55 204.68 193.4 204.68 190.07 230.18 175.22"/><path class="cls-15" d="M221.55,175.79c1.48-.73,2.56-1.84,4.72-2.71a9.88,9.88,0,0,0,4-2.44c1.47-1.45,3.89-6.92,5.62-12.26a54.77,54.77,0,0,0,2-18.53c-.73-7.49-3.43-18-4.11-22.26s.71-6,2.71-7.61c2.35-1.86,5.6-1,7.33,5a115.91,115.91,0,0,1,3.87,25.56,58.32,58.32,0,0,1-2.93,18.89c-1.81,5.66-4.17,9.73-7.2,14.84-.82,1.39-1.09,2.63-2.35,5.47a19.19,19.19,0,0,1-5.52,7.33c-2.11,1.52-3.11,1.73-3.6,1.44s-.5-1,.39-1.84a16.1,16.1,0,0,0,3.76-4.22s-1.84,1.85-3.05,2.86a15.61,15.61,0,0,1-3.53,2.25c-1.23.54-2.95-.5-2.07-1.34s1.77-1.23,3.53-2.76a15.32,15.32,0,0,0,2.5-2.72,29.28,29.28,0,0,1-3.91,2.54,6.54,6.54,0,0,1-3.57,1c-.65,0-1.44-.93-.22-1.82s2.82-1.34,4.67-3.19c1.35-1.34,2.11-2.47,1.73-2.5s-1.11.82-2.69,1.32-3.28,0-3.48-.82S220.07,176.52,221.55,175.79Z"/><path class="cls-15" d="M211.49,81.4h0c1-6.44,5.64-11.33,12.28-11A12.83,12.83,0,0,1,235.86,84a12.68,12.68,0,0,1-5.58,9.81,13,13,0,0,1-1,2.82c-2.35,2.75-9.45,4.45-11.5,4.16-2.62-.38-4-1.47-5.29-4.34C210.26,91.35,211,84.59,211.49,81.4Z"/><path class="cls-22" d="M230.28,93.77h0l-.61-5.62s4.6-11.89-6.26-9.61c-7.16,1.51-9,2.16-11.14-2.64s5.51-9.13,14.64-7.93a12.61,12.61,0,0,1,11.29,12.8C238,84.31,237,91.46,230.28,93.77Z"/><path class="cls-23" d="M248.86,126.05s-5.92,5.89-12.93,4.19c-1-.68-3.41-14.45-3.41-14.45s0-7.63,5.85-7.43S248.86,126.05,248.86,126.05Z"/><path class="cls-23" d="M204.13,114.62s-3.09-.15-4.37-2c.23-3.08,4.18-14.79,12.12-15.66a14.71,14.71,0,0,0-5,6C205.47,106.52,204.13,114.62,204.13,114.62Z"/><ellipse class="cls-24" cx="208.24" cy="477.63" rx="32.39" ry="18.7"/><path class="cls-25" d="M256.21,410.7l-86.7-.47,11,63.41c-.24,5,2.89,10,9.44,13.74,12.65,7.31,33.15,7.31,45.8,0,5.75-3.32,8.86-7.57,9.38-11.92h0Z"/><ellipse class="cls-26" cx="212.86" cy="409.42" rx="43.4" ry="25.05"/><path class="cls-27" d="M212.86,429c-10.63,0-20.55-2.34-27.92-6.6C178.62,418.7,175,414,175,409.42s3.63-9.28,9.95-12.93c7.37-4.25,17.28-6.59,27.92-6.59s20.55,2.34,27.92,6.59c6.32,3.65,9.95,8.37,9.95,12.94s-3.62,9.28-9.95,12.92C233.41,426.61,223.5,429,212.86,429Z"/><path class="cls-28" d="M231.53,389.68a54.82,54.82,0,0,0-18.41-45.12v-.06l0,0-.13-.12v.24a54.81,54.81,0,0,0-18.42,45.12l-24.79-2.34c10.47,39.46,43.37,36.06,43.37,36.06v-.07c2.48.19,33.17,1.78,43.21-36.08Z"/><path class="cls-29" d="M213.12,423.49s-2.22-30.72-43.48-51.41C169.64,372.08,159.87,423.12,213.12,423.49Z"/><path class="cls-29" d="M212.86,423.49s2.22-30.72,43.48-51.41C256.34,372.08,266.11,423.12,212.86,423.49Z"/><polygon class="cls-12" points="213.06 3.62 213.06 8.1 216.93 5.85 213.06 3.62"/><polygon class="cls-12" points="171.13 28.01 171.13 32.49 175 30.24 171.13 28.01"/></g></g></svg>